<?xml version="1.0" encoding="UTF-8" standalone="no"?>
<svg
   version="1.1"
   viewBox="0 0 595 194"
   id="svg32"
   sodipodi:docname="nixrun_light.svg"
   inkscape:export-filename="nixrun.png"
   inkscape:export-xdpi="96"
   inkscape:export-ydpi="96"
   inkscape:version="1.2.1 (9c6d41e410, 2022-07-14)"
   xmlns:inkscape="http://www.inkscape.org/namespaces/inkscape"
   xmlns:sodipodi="http://sodipodi.sourceforge.net/DTD/sodipodi-0.dtd"
   xmlns="http://www.w3.org/2000/svg"
   xmlns:svg="http://www.w3.org/2000/svg">
  <defs
     id="defs36" />
  <sodipodi:namedview
     id="namedview34"
     pagecolor="#ffffff"
     bordercolor="#000000"
     borderopacity="0.24705882"
     inkscape:showpageshadow="2"
     inkscape:pageopacity="0"
     inkscape:pagecheckerboard="0"
     inkscape:deskcolor="#d1d1d1"
     showgrid="true"
     inkscape:zoom="1.4643634"
     inkscape:cx="227.74402"
     inkscape:cy="122.23742"
     inkscape:window-width="1912"
     inkscape:window-height="1032"
     inkscape:window-x="0"
     inkscape:window-y="0"
     inkscape:window-maximized="1"
     inkscape:current-layer="svg32" />
  <path
     fill="#71adb5"
     fill-opacity="1"
     d="m 129.83442,35.4 c 17.79,10.14 35.67,20.42 53.62,30.84 0.15,0.09 0.22,0.21 0.22,0.38 0,20.58 0,40.82 0,60.73 0,0.23 -0.1,0.41 -0.31,0.53 -18.32,10.55 -36.15,20.79 -53.49,30.72 -0.14,0.08 -0.29,0.08 -0.43,0 -18.25,-10.46 -36.009997,-20.69 -53.269997,-30.67 -0.29,-0.17 -0.44,-0.42 -0.44,-0.75 -0.1,-20.12 -0.1,-40.25 0,-60.38 0,-0.33 0.15,-0.58 0.43,-0.75 17.06,-9.86 34.799997,-20.08 53.239997,-30.65 0.14,-0.08 0.29,-0.08 0.43,0 z m 37.99,33.47 c -12.17,-6.97 -24.78,-14.11 -37.83,-21.41 -0.26,-0.15 -0.51,-0.15 -0.77,0 -12.33,7.06 -24.79,14.16 -37.369997,21.31 -0.27,0.15 -0.27,0.31 0,0.47 3.21,1.93 6.46,3.81 9.749997,5.63 0.15,0.08 0.3,0.08 0.44,-0.01 8.87,-5.2 17.89,-10.35 27.05,-15.47 0.45,-0.25 0.9,-0.24 1.35,0.01 8.65,4.99 17.57,10.08 26.74,15.27 0.45,0.26 0.9,0.25 1.34,-0.03 3.04,-1.91 6.14,-3.75 9.3,-5.52 0.14,-0.09 0.14,-0.17 0,-0.25 z m -60.54,34.8 c 5.58,-3.11 11.2,-6.31 16.86,-9.6 0.19,-0.11 0.28,-0.28 0.28,-0.49 0,-6.73 0,-13.07 0,-19.02 0,-0.32 -0.14,-0.4 -0.41,-0.24 -5.85,3.24 -11.42,6.43 -16.72,9.54 -0.25,0.15 -0.37,0.36 -0.37,0.65 0,6.32 0,12.63 0,18.94 0,0.28 0.12,0.35 0.36,0.22 z m 44.67,-19.98 c -5.42,-3.06 -10.92,-6.18 -16.49,-9.36 -0.36,-0.2 -0.54,-0.1 -0.54,0.32 0,5.89 0,12.18 0,18.86 0,0.33 0.14,0.57 0.43,0.73 5.56,3.1 11.04,6.24 16.45,9.43 0.41,0.24 0.62,0.12 0.62,-0.36 0,-5.88 0,-12.15 0,-18.82 0,-0.35 -0.16,-0.62 -0.47,-0.8 z m -27.93,48.05 c -8.85,-5.05 -17.8,-10.14 -26.849997,-15.27 -0.5,-0.29 -0.75,-0.72 -0.75,-1.29 0,-10.46 0,-20.73 0,-30.8 0,-0.26 -0.11,-0.45 -0.33,-0.59 -3.63,-2.18 -6.77,-4.02 -9.42,-5.49 -0.29,-0.17 -0.44,-0.08 -0.44,0.25 -0.07,13.72 -0.09,27.99 -0.06,42.8 0,0.49 0.22,0.86 0.65,1.1 12.24,6.82 24.499997,13.76 36.779997,20.83 0.55,0.32 0.82,0.16 0.82,-0.47 0,-3.21 0,-6.68 0,-10.39 0,-0.3 -0.13,-0.53 -0.4,-0.68 z m 38.41,-15.56 c -9.26,5.34 -18.27,10.55 -27.02,15.62 -0.28,0.17 -0.43,0.42 -0.43,0.75 0.02,3.61 -0.06,7.15 -0.22,10.63 -0.02,0.33 0.12,0.42 0.41,0.26 12.56,-6.94 25.06,-14.03 37.51,-21.26 0.28,-0.17 0.43,-0.42 0.43,-0.75 0.07,-13.89 0.09,-28.24 0.06,-43.05 0,-0.28 -0.13,-0.35 -0.37,-0.21 -3.43,2 -6.58,3.86 -9.46,5.57 -0.28,0.17 -0.42,0.42 -0.42,0.75 0.03,10.82 0.01,21.13 -0.06,30.94 0,0.33 -0.15,0.58 -0.43,0.75 z m -15.35,-3.3 c -5.37,-3.1 -10.97,-6.27 -16.83,-9.49 -0.41,-0.23 -0.83,-0.23 -1.25,0.01 -5.27,3.01 -10.58,6.02 -15.92,9.03 -0.62,0.35 -0.62,0.7 0,1.06 5.04,2.84 10.25,5.83 15.63,8.97 0.63,0.37 1.27,0.37 1.9,0 5.47,-3.15 10.96,-6.25 16.46,-9.29 0.18,-0.1 0.18,-0.19 0.01,-0.29 z"
     id="path4" />
  <path
     fill="#ffffff"
     fill-opacity="1"
     d="m 218.48442,66.29 c 2.08,-0.06 4.83,-0.08 8.27,-0.04 0.74,0.01 1.34,0.3 1.8,0.88 9.68,12.22 19.4,24.43 29.16,36.64 0.29,0.37 0.45,0.32 0.46,-0.15 0,-4.96 0,-10 0,-15.13 0,-6.78 0.1,-14.01 0.3,-21.69 0.01,-0.33 0.18,-0.5 0.51,-0.52 3.88,-0.15 7.72,-0.11 11.5,0.12 0.34,0.02 0.51,0.2 0.51,0.53 0.21,19.38 0.27,39.47 0.17,60.25 0,0.32 -0.16,0.49 -0.49,0.5 -2.21,0.07 -4.95,0.09 -8.22,0.05 -0.67,-0.01 -1.21,-0.27 -1.63,-0.79 -9.91,-12.33 -19.73,-24.59 -29.47,-36.77 -0.41,-0.51 -0.62,-0.44 -0.62,0.22 -0.1,11.9 -0.1,24.24 0.01,37.01 0,0.23 -0.11,0.34 -0.33,0.34 -3.99,0 -8.06,0 -12.19,0 -0.2,0 -0.3,-0.1 -0.3,-0.3 -0.03,-20.45 -0.01,-40.67 0.06,-60.64 0,-0.33 0.17,-0.5 0.5,-0.51 z"
     id="path8"
     style="fill:#000000" />
  <path
     fill="#ffffff"
     fill-opacity="1"
     d="m 282.23442,66.29 c 3.13,-0.06 7.11,-0.08 11.94,-0.04 0.16,0 0.25,0.08 0.25,0.25 0.03,20.87 0.01,41.1 -0.06,60.68 0,0.33 -0.17,0.5 -0.5,0.51 -3.79,0.1 -7.68,0.09 -11.67,-0.01 -0.33,0 -0.49,-0.17 -0.5,-0.5 0.12,-9.7 0.17,-18.7 0.17,-27 -0.01,-10.79 -0.05,-21.92 -0.13,-33.38 0,-0.33 0.17,-0.5 0.5,-0.51 z"
     id="path10"
     style="fill:#000000" />
  <path
     fill="#ffffff"
     fill-opacity="1"
     d="m 303.77442,66.24 c 5.4,-0.03 10.09,-0.01 14.09,0.05 0.33,0.01 0.59,0.15 0.77,0.43 4.05,6.13 8.2,12.15 12.44,18.05 0.19,0.27 0.38,0.27 0.56,-0.01 3.89,-6 7.97,-12.1 12.22,-18.3 0.1,-0.15 0.24,-0.22 0.42,-0.22 4.77,0 9.42,0 13.97,0 0.55,0 0.67,0.23 0.37,0.69 -6.38,9.6 -12.89,19.38 -19.54,29.34 -0.18,0.27 -0.18,0.54 0,0.81 6.49,9.74 13.22,19.72 20.18,29.93 0.33,0.49 0.2,0.73 -0.39,0.73 -4.29,0 -8.8,0 -13.53,0 -0.45,0 -0.8,-0.19 -1.06,-0.56 -4.09,-6.1 -8.31,-12.34 -12.65,-18.72 -0.19,-0.29 -0.39,-0.29 -0.59,0 -4.12,6.03 -8.39,12.39 -12.82,19.07 -0.09,0.14 -0.22,0.21 -0.39,0.21 -5.23,0.03 -9.97,0.01 -14.2,-0.06 -0.39,-0.01 -0.48,-0.17 -0.26,-0.5 6.69,-9.99 13.32,-19.94 19.9,-29.86 0.26,-0.39 0.26,-0.78 0,-1.16 -6.69,-10 -13.26,-19.82 -19.73,-29.47 -0.2,-0.29 -0.12,-0.44 0.24,-0.45 z"
     id="path12"
     style="fill:#000000" />
  <path
     fill="#ffffff"
     fill-opacity="1"
     d="m 372.49442,66.24 c 5.29,0 10.6,0 15.93,0 4.11,0 7.61,0.5 10.5,1.5 5.42,1.87 9.1,5.35 11.04,10.44 1.14,2.97 1.48,6.04 1.01,9.19 -0.62,3.85 -2.05,7.05 -4.3,9.62 -2.57,2.94 -6.02,4.86 -10.36,5.77 -0.44,0.09 -0.52,0.31 -0.25,0.66 5.53,7.25 11.23,14.67 17.09,22.27 0.33,0.42 0.23,0.67 -0.29,0.77 -1.36,0.23 -2.32,-0.02 -2.88,-0.78 -5.29,-7.17 -10.81,-14.5 -16.57,-21.98 -0.2,-0.27 -0.47,-0.39 -0.8,-0.38 -5.08,0.19 -10.77,0.24 -17.07,0.15 -0.58,0 -0.87,0.28 -0.87,0.86 -0.08,7.36 -0.08,14.33 0,20.91 0.01,1.06 -0.73,1.45 -2.23,1.16 -0.18,-0.03 -0.27,-0.14 -0.27,-0.32 0,-19.73 0,-39.57 0,-59.52 0,-0.21 0.11,-0.32 0.32,-0.32 z m 33.49,27.56 c 2.56,-3.74 3.12,-8.63 1.69,-14.65 -0.35,-1.59 -1.07,-2.99 -2.14,-4.22 -3.08,-3.63 -6.95,-5.61 -11.61,-5.94 -5.16,-0.37 -11.46,-0.44 -18.9,-0.24 -0.23,0.01 -0.35,0.12 -0.35,0.36 0,10.34 0,20.74 0,31.22 0,0.26 0.13,0.39 0.39,0.4 7.31,0.25 13.51,0.17 18.61,-0.24 5.42,-0.37 9.52,-2.6 12.31,-6.69 z"
     id="path14"
     style="fill:#000000" />
  <path
     fill="#ffffff"
     fill-opacity="1"
     d="m 421.67442,66.24 c 1,0.22 1.5,0.38 1.5,0.5 0,12 0,24 0,36 0,4.36 0.42,7.78 1.25,10.25 1.29,3.83 3.43,6.88 6.41,9.14 0.27,0.2 0.55,0.38 0.85,0.53 6.16,3.24 12.34,3.31 18.54,0.21 3.54,-1.77 5.98,-4.51 7.31,-8.23 1.31,-3.89 1.94,-8.11 1.89,-12.65 -0.12,-11.82 -0.11,-23.47 0.05,-34.94 0.01,-0.33 0.15,-0.59 0.43,-0.77 0.51,-0.33 1.02,-0.33 1.54,0 0.28,0.18 0.42,0.44 0.42,0.77 0.02,12.56 0.04,25.29 0.06,38.19 0.01,5.69 -1.47,10.62 -4.44,14.81 -3.07,4.27 -7.18,6.74 -12.31,7.44 -4.01,0.62 -7.85,0.34 -11.52,-0.85 -0.32,-0.1 -0.63,-0.22 -0.93,-0.36 -5.63,-2.49 -9.21,-6.61 -10.74,-12.35 -1.07,-4.05 -1.51,-8.53 -1.31,-13.44 0.3,-11.09 0.3,-22.17 0,-33.25 -0.02,-0.86 0.31,-1.19 1,-1 z"
     id="path16"
     style="fill:#000000" />
  <path
     fill="#ffffff"
     fill-opacity="1"
     d="m 472.97442,66.2 c 0.68,-0.14 1.43,0.36 2.26,1.48 13.48,18.19 27.13,36.06 40.94,53.61 0.21,0.26 0.32,0.22 0.32,-0.11 0.16,-17.52 0.22,-35.67 0.18,-54.46 0,-0.24 0.12,-0.38 0.35,-0.42 1.89,-0.3 2.59,0.11 2.1,1.23 -0.13,0.31 -0.19,0.63 -0.16,0.96 0.36,3.12 0.43,6.79 0.21,11 -0.06,3.92 -0.06,7.84 0,11.75 0.24,11.4 0.22,22.8 -0.06,34.19 -0.03,1.18 -0.59,1.51 -1.68,0.98 -0.3,-0.15 -0.55,-0.36 -0.75,-0.63 -13.78,-17.97 -27.61,-36.09 -41.49,-54.37 -0.17,-0.23 -0.26,-0.2 -0.27,0.09 -0.15,17.89 -0.23,35.47 -0.25,52.74 0,0.33 0.07,0.65 0.2,0.96 0.49,1.12 -0.21,1.53 -2.1,1.23 -0.23,-0.04 -0.35,-0.18 -0.35,-0.41 0.07,-10.69 0.07,-21.36 0,-32.03 -0.06,-9.27 -0.05,-18.33 0.05,-27.19 0.01,-0.33 0.17,-0.53 0.5,-0.6 z"
     id="path18"
     style="fill:#000000" />
</svg>
