<svg xmlns="http://www.w3.org/2000/svg" viewBox="0 0 595 194"><path fill="#71adb5" d="M106.9 35.4c17.79 10.14 35.67 20.42 53.62 30.84.15.09.22.21.22.38v60.73c0 .23-.1.41-.31.53a25576.52 25576.52 0 0 1-53.49 30.72c-.14.08-.29.08-.43 0-18.25-10.46-36.01-20.69-53.27-30.67-.29-.17-.44-.42-.44-.75-.1-20.12-.1-40.25 0-60.38 0-.33.15-.58.43-.75 17.06-9.86 34.8-20.08 53.24-30.65.14-.08.29-.08.43 0zm37.99 33.47c-12.17-6.97-24.78-14.11-37.83-21.41a.715.715 0 0 0-.77 0C93.96 54.52 81.5 61.62 68.92 68.77c-.27.15-.27.31 0 .47 3.21 1.93 6.46 3.81 9.75 5.63.15.08.3.08.44-.01 8.87-5.2 17.89-10.35 27.05-15.47.45-.25.9-.24 1.35.01 8.65 4.99 17.57 10.08 26.74 15.27.45.26.9.25 1.34-.03 3.04-1.91 6.14-3.75 9.3-5.52.14-.09.14-.17 0-.25zm-60.54 34.8c5.58-3.11 11.2-6.31 16.86-9.6.19-.11.28-.28.28-.49V74.56c0-.32-.14-.4-.41-.24-5.85 3.24-11.42 6.43-16.72 9.54-.25.15-.37.36-.37.65v18.94c0 .28.12.35.36.22zm44.67-19.98c-5.42-3.06-10.92-6.18-16.49-9.36-.36-.2-.54-.1-.54.32v18.86c0 .33.14.57.43.73 5.56 3.1 11.04 6.24 16.45 9.43.41.24.62.12.62-.36V84.49c0-.35-.16-.62-.47-.8zm-27.93 48.05c-8.85-5.05-17.8-10.14-26.85-15.27-.5-.29-.75-.72-.75-1.29v-30.8c0-.26-.11-.45-.33-.59-3.63-2.18-6.77-4.02-9.42-5.49-.29-.17-.44-.08-.44.25-.07 13.72-.09 27.99-.06 42.8 0 .49.22.86.65 1.1 12.24 6.82 24.5 13.76 36.78 20.83.55.32.82.16.82-.47v-10.39c0-.3-.13-.53-.4-.68zm38.41-15.56c-9.26 5.34-18.27 10.55-27.02 15.62-.28.17-.43.42-.43.75.02 3.61-.06 7.15-.22 10.63-.02.33.12.42.41.26 12.56-6.94 25.06-14.03 37.51-21.26.28-.17.43-.42.43-.75.07-13.89.09-28.24.06-43.05 0-.28-.13-.35-.37-.21-3.43 2-6.58 3.86-9.46 5.57-.28.17-.42.42-.42.75.03 10.82.01 21.13-.06 30.94 0 .33-.15.58-.43.75zm-15.35-3.3c-5.37-3.1-10.97-6.27-16.83-9.49-.41-.23-.83-.23-1.25.01-5.27 3.01-10.58 6.02-15.92 9.03-.62.35-.62.7 0 1.06 5.04 2.84 10.25 5.83 15.63 8.97.63.37 1.27.37 1.9 0 5.47-3.15 10.96-6.25 16.46-9.29.18-.1.18-.19.01-.29z"/><text xml:space="preserve" x="204.921" y="130.888" style="font-size:96px;font-family:FreeSans;-inkscape-font-specification:FreeSans;fill:#252525;fill-opacity:1" transform="translate(-22.934)"><tspan x="204.921" y="130.888" style="font-size:96px;fill:#252525;fill-opacity:1"><tspan style="font-style:normal;font-variant:normal;font-weight:600;font-stretch:normal;font-size:96px;font-family:FreeSans;-inkscape-font-specification:&quot;FreeSans Semi-Bold&quot;;fill:#252525;fill-opacity:1">infra</tspan>box</tspan></text></svg>